<svg xmlns="http://www.w3.org/2000/svg" width="298" height="7" viewBox="0 0 298 7">
  <g id="line" transform="translate(-816 -4018)">
    <ellipse id="Ellipse_6" data-name="Ellipse 6" cx="3.47" cy="3.5" rx="3.47" ry="3.5" transform="translate(816 4018)"/>
    <ellipse id="Ellipse_6_copy" data-name="Ellipse 6 copy" cx="3.47" cy="3.5" rx="3.47" ry="3.5" transform="translate(836.78 4018)"/>
    <ellipse id="Ellipse_6_copy_2" data-name="Ellipse 6 copy 2" cx="3.45" cy="3.5" rx="3.45" ry="3.5" transform="translate(857.6 4018)"/>
    <ellipse id="Ellipse_6_copy_3" data-name="Ellipse 6 copy 3" cx="3.47" cy="3.5" rx="3.47" ry="3.5" transform="translate(878.37 4018)"/>
    <ellipse id="Ellipse_6_copy_4" data-name="Ellipse 6 copy 4" cx="3.47" cy="3.5" rx="3.47" ry="3.5" transform="translate(899.15 4018)"/>
    <ellipse id="Ellipse_6_copy_5" data-name="Ellipse 6 copy 5" cx="3.45" cy="3.5" rx="3.45" ry="3.5" transform="translate(919.97 4018)"/>
    <ellipse id="Ellipse_6_copy_6" data-name="Ellipse 6 copy 6" cx="3.47" cy="3.5" rx="3.47" ry="3.5" transform="translate(939.87 4018)"/>
    <ellipse id="Ellipse_6_copy_7" data-name="Ellipse 6 copy 7" cx="3.47" cy="3.5" rx="3.47" ry="3.5" transform="translate(960.65 4018)"/>
    <ellipse id="Ellipse_6_copy_8" data-name="Ellipse 6 copy 8" cx="3.45" cy="3.5" rx="3.45" ry="3.5" transform="translate(981.47 4018)"/>
    <ellipse id="Ellipse_6_copy_9" data-name="Ellipse 6 copy 9" cx="3.47" cy="3.5" rx="3.47" ry="3.5" transform="translate(1002.25 4018)"/>
    <ellipse id="Ellipse_6_copy_10" data-name="Ellipse 6 copy 10" cx="3.47" cy="3.5" rx="3.47" ry="3.5" transform="translate(1023.9 4018)"/>
    <ellipse id="Ellipse_6_copy_10-2" data-name="Ellipse 6 copy 10" cx="3.47" cy="3.5" rx="3.47" ry="3.5" transform="translate(1044.69 4018)"/>
    <ellipse id="Ellipse_6_copy_10-3" data-name="Ellipse 6 copy 10" cx="3.45" cy="3.5" rx="3.45" ry="3.5" transform="translate(1065.5 4018)"/>
    <ellipse id="Ellipse_6_copy_10-4" data-name="Ellipse 6 copy 10" cx="3.47" cy="3.5" rx="3.47" ry="3.5" transform="translate(1086.28 4018)"/>
    <ellipse id="Ellipse_6_copy_10-5" data-name="Ellipse 6 copy 10" cx="3.47" cy="3.5" rx="3.47" ry="3.5" transform="translate(1107.06 4018)"/>
  </g>
</svg>
