<svg xmlns="http://www.w3.org/2000/svg" width="51" height="53" viewBox="0 0 51 53">
  <g id="icon" transform="translate(-1820 -5341)">
    <circle id="Ellipse_4_copy" data-name="Ellipse 4 copy" cx="20.5" cy="20.5" r="20.5" transform="translate(1830 5353)" fill="#ffe409"/>
    <path id="Shape_5" data-name="Shape 5" d="M1849.176,5384h-26.353a2.818,2.818,0,0,1-2.823-2.8V5356.89a2.817,2.817,0,0,1,2.823-2.8h.941v-8.413a4.7,4.7,0,0,1,4.706-4.674h15.059a4.7,4.7,0,0,1,4.706,4.674v8.413h.941a2.817,2.817,0,0,1,2.823,2.8V5381.2A2.817,2.817,0,0,1,1849.176,5384Zm-2.824-38.326a2.817,2.817,0,0,0-2.823-2.8H1828.47a2.817,2.817,0,0,0-2.823,2.8v8.413h3.765v-6.543a.938.938,0,0,1,.941-.935h11.294a.939.939,0,0,1,.941.935v6.543h3.765Zm-15.059,2.8v5.608h9.412v-5.608Zm18.824,8.412a.939.939,0,0,0-.941-.934h-26.353a.939.939,0,0,0-.941.934V5381.2a.94.94,0,0,0,.941.935h26.353a.94.94,0,0,0,.941-.935Zm-11.766,13.394a4.767,4.767,0,0,1-1.411.522v3.846h1.882a.935.935,0,1,1,0,1.87h-5.647a.935.935,0,1,1,0-1.87h1.882v-3.844a4.771,4.771,0,0,1-1.411-.524,4.706,4.706,0,1,1,4.7,0Zm-2.352-6.849a2.8,2.8,0,1,0,2.823,2.8A2.818,2.818,0,0,0,1836,5363.434Z"/>
  </g>
</svg>
