<svg xmlns="http://www.w3.org/2000/svg" width="29.006" height="18.999" viewBox="0 0 29.006 18.999">
  <path id="Shape_8" data-name="Shape 8" d="M157.991,5565.552c0-.012.005-.023.006-.034a.476.476,0,0,0,0-.106c0-.009,0-.018,0-.027a.471.471,0,0,0-.048-.137c0-.008-.009-.015-.014-.022s0,0,0,0l0,0-.01-.016a.477.477,0,0,0-.107-.11c-.009-.006-.02-.01-.029-.016a.453.453,0,0,0-.114-.055.514.514,0,0,0-.054-.013.521.521,0,0,0-.107-.009.558.558,0,0,0-.057,0c-.013,0-.025,0-.037,0l-28.033,5.7a.479.479,0,0,0-.381.4.472.472,0,0,0,.253.486l8.032,4.168,1.409,7.691c0,.006,0,.012,0,.018a.438.438,0,0,0,0,.113.425.425,0,0,0,.01.055.452.452,0,0,0,.053.127c0,.007,0,.016.01.024s0,0,.006.006.015.016.022.025a.536.536,0,0,0,.073.075s.007.008.012.011.015.007.023.012a.517.517,0,0,0,.092.047c.013,0,.025.01.039.014a.477.477,0,0,0,.134.021h.032a.485.485,0,0,0,.344-.149l5.35-3.509,5.6,3.582a.489.489,0,0,0,.415.052.479.479,0,0,0,.3-.287l6.759-18.049a.414.414,0,0,0,.016-.05c0-.007,0-.015,0-.021S157.99,5565.558,157.991,5565.552Zm-5.594,3.032-11.587,8.382a.564.564,0,0,0-.05.046c-.006.006-.012.011-.018.017l-.028.034c-.009.012-.015.023-.023.035a.473.473,0,0,0-.044.089c0,.006-.006.011-.008.017s0,0,0,0l-1.328,4.246-1.052-5.744Zm-12.342,13.786,1.317-4.278,2.05,1.311.586.375-1.992,1.306Zm14.071-15.725-16.407,8.268-6.829-3.543Zm-3.615,16.157-7.44-4.757-1.127-.721,14.563-10.534Z" transform="translate(-128.992 -5565)"/>
</svg>
