<svg xmlns="http://www.w3.org/2000/svg" width="25.999" height="25" viewBox="0 0 25.999 25">
  <path id="Shape_1" data-name="Shape 1" d="M138.236,5479.618a27.549,27.549,0,0,0,9.209,6.911,14.8,14.8,0,0,0,5.154,1.46c.124.005.243.011.368.011a4.357,4.357,0,0,0,3.31-1.363.106.106,0,0,0,.022-.025,13.544,13.544,0,0,1,1.044-1.037c.254-.233.514-.476.762-.725a2.431,2.431,0,0,0-.011-3.724l-3.25-3.114a2.683,2.683,0,0,0-1.9-.839,2.777,2.777,0,0,0-1.925.834l-1.936,1.855c-.179-.1-.362-.187-.535-.271-.216-.1-.417-.2-.595-.31a20.221,20.221,0,0,1-4.894-4.269,11.267,11.267,0,0,1-1.655-2.528c.508-.44.984-.9,1.444-1.353.162-.161.33-.321.5-.481a2.387,2.387,0,0,0,0-3.73l-1.611-1.543c-.189-.181-.368-.357-.552-.539-.357-.353-.73-.714-1.1-1.041a2.752,2.752,0,0,0-1.9-.8,2.836,2.836,0,0,0-1.925.8l-2.022,1.938a3.913,3.913,0,0,0-1.238,2.549,9.228,9.228,0,0,0,.752,4.144A23.931,23.931,0,0,0,138.236,5479.618ZM134.31,5468.4a2.692,2.692,0,0,1,.86-1.761l2.012-1.928a1.484,1.484,0,0,1,.995-.439,1.405,1.405,0,0,1,.973.45c.362.321.7.658,1.071,1.015.184.181.373.363.562.549l1.612,1.543a1.178,1.178,0,0,1,0,1.938c-.168.161-.335.326-.5.486-.5.487-.973.949-1.493,1.389l-.027.025a.983.983,0,0,0-.27,1.15c.005.015.011.025.016.041a12.114,12.114,0,0,0,1.9,2.958,21.312,21.312,0,0,0,5.213,4.548,7.975,7.975,0,0,0,.714.374c.216.1.417.2.595.31l.059.031a1.109,1.109,0,0,0,1.33-.223l2.023-1.937a1.456,1.456,0,0,1,.99-.461,1.378,1.378,0,0,1,.957.461l3.261,3.118a1.217,1.217,0,0,1-.016,1.953c-.227.233-.465.456-.719.689a15.184,15.184,0,0,0-1.13,1.124,3.033,3.033,0,0,1-2.32.942c-.092,0-.189,0-.281-.01a13.43,13.43,0,0,1-4.661-1.337,26.169,26.169,0,0,1-8.766-6.578,22.918,22.918,0,0,1-4.272-6.812A8.043,8.043,0,0,1,134.31,5468.4Z" transform="translate(-132.967 -5463)"/>
</svg>
