<svg xmlns="http://www.w3.org/2000/svg" width="28.001" height="42" viewBox="0 0 28.001 42">
  <path id="Forma_1" data-name="Forma 1" d="M886.124,5377.52l-1.925-2.972c-.112-.172-2.776-4.3-5.451-9.178-3.922-7.155-5.748-11.958-5.748-15.117a14,14,0,1,1,28,0c0,3.158-1.828,7.962-5.748,15.117-2.7,4.918-5.341,9.006-5.451,9.178l-1.925,2.972a1.04,1.04,0,0,1-1.752,0ZM875.1,5350.253c0,2.7,1.844,7.439,5.481,14.076,2.639,4.813,5.261,8.873,5.372,9.043l1.049,1.62,1.05-1.62c.109-.169,2.712-4.194,5.37-9.043,3.637-6.637,5.481-11.373,5.481-14.076a11.9,11.9,0,1,0-23.8,0Zm4.14-.089a7.763,7.763,0,1,1,7.762,7.9A7.843,7.843,0,0,1,879.238,5350.165Zm2.1,0A5.666,5.666,0,1,0,887,5344.4,5.723,5.723,0,0,0,881.335,5350.165Z" transform="translate(-873 -5336)"/>
</svg>
