<svg xmlns="http://www.w3.org/2000/svg" width="14.029" height="14.998" viewBox="0 0 14.029 14.998">
  <path id="Forma_1" data-name="Forma 1" d="M1069.952,630.572l-1.479-2.077,1.479-2.077a.271.271,0,0,0,.033-.243.228.228,0,0,0-.164-.167l-2.4-.8v-2.562a.263.263,0,0,0-.107-.218.237.237,0,0,0-.238-.034l-2.4.787L1063.2,621.1a.277.277,0,0,0-.427,0l-1.479,2.077-2.4-.787a.237.237,0,0,0-.238.034.263.263,0,0,0-.107.218V625.2l-2.4.8a.23.23,0,0,0-.164.167.271.271,0,0,0,.033.243l1.479,2.077-1.479,2.077a.265.265,0,0,0-.033.243.23.23,0,0,0,.164.167l2.4.8v2.562a.263.263,0,0,0,.107.218.236.236,0,0,0,.238.034l2.4-.787,1.479,2.076a.264.264,0,0,0,.427,0l1.479-2.076,2.4.787a.236.236,0,0,0,.238-.034.263.263,0,0,0,.107-.218v-2.562l2.4-.8a.229.229,0,0,0,.164-.167A.265.265,0,0,0,1069.952,630.572Zm-2.608-.205a4.852,4.852,0,0,1-1.01,1.541,4.754,4.754,0,0,1-1.512,1.03,4.612,4.612,0,0,1-3.672,0,4.757,4.757,0,0,1-1.512-1.03,4.852,4.852,0,0,1-1.01-1.541,4.873,4.873,0,0,1,0-3.743,4.853,4.853,0,0,1,1.01-1.541,4.751,4.751,0,0,1,1.512-1.03,4.614,4.614,0,0,1,3.672,0,4.747,4.747,0,0,1,1.512,1.03,4.853,4.853,0,0,1,1.01,1.541,4.873,4.873,0,0,1,0,3.743Z" transform="translate(-1055.971 -621.001)"/>
</svg>
