<svg xmlns="http://www.w3.org/2000/svg" width="63.001" height="63" viewBox="0 0 63.001 63">
  <path id="icon" d="M1447.3,384a1.23,1.23,0,1,1,0-2.461h8.34l7.676-13.3h-1.936a1.23,1.23,0,1,1,0-2.461h28.177a3.7,3.7,0,0,0,3.691-3.692V344.372a3.7,3.7,0,0,0-3.691-3.692h-37.406a3.7,3.7,0,0,0-3.691,3.692h12.024a1.23,1.23,0,0,1,0,2.461h-12.024v15.259a3.7,3.7,0,0,0,3.691,3.691h.287a1.23,1.23,0,0,1,0,2.461h-.287A6.16,6.16,0,0,1,1446,362.09V344.372a6.162,6.162,0,0,1,3.921-5.732,9.84,9.84,0,1,1,12.488-.42h15.574a9.839,9.839,0,1,1,12.845.132,6.163,6.163,0,0,1,4.883,6.02v.893l7.73-4.663a3.667,3.667,0,0,1,5.56,3.139v17.5a3.624,3.624,0,0,1-1.864,3.192,3.629,3.629,0,0,1-3.7-.053l-7.73-4.664v2.37a6.159,6.159,0,0,1-6.152,6.152h-11.164l7.677,13.3h8.409a1.23,1.23,0,1,1,0,2.461Zm33.362-2.461h2.566l-7.676-13.3h-2.566Zm-16.773,0h13.932l-6.966-12.066Zm-5.407,0h2.566l7.676-13.3h-2.566Zm46.229-38.831-9,5.431v8.707l9,5.43a1.205,1.205,0,0,0,1.828-1.031v-17.5a1.184,1.184,0,0,0-.613-1.05,1.244,1.244,0,0,0-.6-.16A1.178,1.178,0,0,0,1504.711,342.708ZM1477.1,330.84a7.379,7.379,0,1,0,7.379-7.379A7.387,7.387,0,0,0,1477.1,330.84Zm-28.572,0a7.379,7.379,0,1,0,7.379-7.379A7.387,7.387,0,0,0,1448.53,330.84Zm7.673,37.042a1.232,1.232,0,1,1,.87.36A1.241,1.241,0,0,1,1456.2,367.882Zm9.9-21.05a1.23,1.23,0,0,1,0-2.461h.014a1.23,1.23,0,1,1,0,2.461Zm14.567-15.992a3.815,3.815,0,1,1,3.815,3.814A3.819,3.819,0,0,1,1480.667,330.84Zm2.462,0a1.353,1.353,0,1,0,1.354-1.354A1.355,1.355,0,0,0,1483.128,330.84Zm-31.033,0a3.814,3.814,0,1,1,3.814,3.814A3.818,3.818,0,0,1,1452.1,330.84Zm2.461,0a1.354,1.354,0,1,0,1.354-1.354A1.355,1.355,0,0,0,1454.556,330.84Z" transform="translate(-1445.999 -320.999)"/>
</svg>
