<svg xmlns="http://www.w3.org/2000/svg" width="63" height="63" viewBox="0 0 63 63">
  <path id="icon" d="M1458.842,256a1.23,1.23,0,0,1-1.23-1.23,6.17,6.17,0,0,1,5.534-6.129v-5.686h-18.725a3.422,3.422,0,0,1-3.421-3.415v-36.48a3.422,3.422,0,0,1,3.421-3.415h1.46a1.23,1.23,0,1,1,0,2.461h-1.46a.959.959,0,0,0-.96.954v29.56h4.184v-2.507a9.2,9.2,0,0,1,8.048-9.111,6.393,6.393,0,0,1-1.433-4.039v-4.7a5.192,5.192,0,0,1,5.187-5.187h6.439a1.23,1.23,0,0,1,1.23,1.23V211.5c0,.089,0,.178-.009.266a1.254,1.254,0,0,1,.009.144v5.051a6.393,6.393,0,0,1-1.433,4.039,9.2,9.2,0,0,1,8.048,9.111v2.507h7.95a8.426,8.426,0,0,1-2.5-6v-3.514a6.738,6.738,0,0,1,6.731-6.73h8.949a1.23,1.23,0,0,1,1.23,1.23v9.014a8.428,8.428,0,0,1-2.542,6.035A11.435,11.435,0,0,1,1504,244.037v10.732a1.23,1.23,0,0,1-1.23,1.23Zm14.889-11.963v9.5h27.809v-2.469h-9.413a1.23,1.23,0,1,1,0-2.461h9.413v-4.572a8.97,8.97,0,0,0-8.959-8.96h-6.272l-.026,0h-3.645A8.968,8.968,0,0,0,1473.73,244.037Zm-13.448,9.5h10.987V251.07h-7.5A3.705,3.705,0,0,0,1460.282,253.538Zm5.324-4.929h5.663v-4.572c0-.365.018-.726.051-1.083h-5.714Zm-22.146-9.07a.959.959,0,0,0,.96.955h27.412a11.456,11.456,0,0,1,3.781-5.414h-32.153Zm6.645-9.428v2.507h21.164v-2.507a6.732,6.732,0,0,0-5.738-6.649l-3.974,3.973a1.23,1.23,0,0,1-1.741,0l-3.974-3.973A6.731,6.731,0,0,0,1450.105,230.111Zm31.536-7v3.514a5.994,5.994,0,1,0,11.987,0V218.84h-7.717A4.274,4.274,0,0,0,1481.641,223.109Zm-20.954,1.715,1.436-1.436h-2.871Zm-3.967-7.863a3.967,3.967,0,0,0,7.934,0v-1.62a4.207,4.207,0,0,1-1.77.39h-6.164Zm0-4.7v1.008h6.164a1.772,1.772,0,0,0,1.77-1.769v-1.965h-5.208A2.729,2.729,0,0,0,1456.72,212.261Zm30.045,38.448a1.229,1.229,0,1,1,.869.361A1.241,1.241,0,0,1,1486.765,250.709Zm-18.457-12.055a1.231,1.231,0,1,1,.87.36A1.242,1.242,0,0,1,1468.308,238.655Zm26.587-26.337v-9.259a.959.959,0,0,0-.96-.954h-12.514a1.23,1.23,0,1,1,0-2.461h12.514a3.422,3.422,0,0,1,3.421,3.415v9.259a1.23,1.23,0,1,1-2.461,0ZM1459.48,200.88v-6.65a1.23,1.23,0,1,1,2.461,0v6.65a1.23,1.23,0,1,1-2.461,0Zm16.58.864a1.229,1.229,0,1,1,.87.361A1.236,1.236,0,0,1,1476.059,201.744Zm-23.645,0-2.183-2.183a1.23,1.23,0,1,1,1.74-1.741l2.183,2.184a1.23,1.23,0,1,1-1.74,1.74Zm14.827-.014a1.231,1.231,0,0,1,0-1.741l2.162-2.163a1.231,1.231,0,0,1,1.741,1.741l-2.163,2.163a1.231,1.231,0,0,1-1.74,0Z" transform="translate(-1441 -193)"/>
</svg>
