<svg xmlns="http://www.w3.org/2000/svg" width="55" height="48.998" viewBox="0 0 55 48.998">
  <path id="Shape_1" data-name="Shape 1" d="M100.287,2433.675v-8.927a2.72,2.72,0,0,0-1.341-2.364,2.683,2.683,0,0,0-2.712-.027,62.887,62.887,0,0,1-26.4,8c-.072.006-8.526.043-8.526.043a4.17,4.17,0,0,0-4.121,3.695H55.445A3.465,3.465,0,0,0,52,2437.567v7.637a3.465,3.465,0,0,0,3.446,3.476h1.735a4.194,4.194,0,0,0,2.448,3.338L65.8,2469.21A2.7,2.7,0,0,0,68.336,2471h6.2a2.691,2.691,0,0,0,2.208-1.159,2.742,2.742,0,0,0,.325-2.488l-5.306-14.764a62.811,62.811,0,0,1,24.473,7.823,2.721,2.721,0,0,0,4.054-2.392v-8.927a7.783,7.783,0,0,0,0-15.417ZM57.151,2446H55.445a.792.792,0,0,1-.788-.795v-7.637a.793.793,0,0,1,.788-.8h1.705Zm3.543,3.563a1.509,1.509,0,0,1-.885-1.375v-13.6h0a1.5,1.5,0,0,1,1.494-1.507h7.233v16.616s-7.3,0-7.328,0A1.39,1.39,0,0,1,60.694,2449.562Zm13.875,18.706a.038.038,0,0,1-.035.051h-6.2a.038.038,0,0,1-.035-.023l-5.718-15.921h6.275Zm23.062-10.248a.049.049,0,0,1-.029.052.062.062,0,0,1-.071,0,65.443,65.443,0,0,0-26.338-8.232v-16.91A65.475,65.475,0,0,0,97.53,2424.7a.062.062,0,0,1,.071,0,.049.049,0,0,1,.029.052Zm2.657-11.641v-9.99a5.1,5.1,0,0,1,0,9.99Z" transform="translate(-52 -2422.002)"/>
</svg>
