<svg xmlns="http://www.w3.org/2000/svg" width="60.038" height="60.001" viewBox="0 0 60.038 60.001">
  <path id="Shape_1" data-name="Shape 1" d="M56.525,1256.667a1.129,1.129,0,0,1,0-1.6l.606-.6a1.144,1.144,0,0,1,1.611,0,1.13,1.13,0,0,1,0,1.6l-.606.6a1.142,1.142,0,0,1-1.61,0Zm3.121-2.921a1.152,1.152,0,1,1,.706.241A1.143,1.143,0,0,1,59.647,1253.747Zm-6.235-.18a1.131,1.131,0,0,1,0-1.6l9.77-9.729a1.136,1.136,0,0,1,1.61,1.6l-9.77,9.73a1.142,1.142,0,0,1-1.61,0Zm26.45.281a1.137,1.137,0,0,1-.782-.877l-1.479-7.952-1.57-1.563-1.809,3.327a1.141,1.141,0,0,1-.838.582,1.286,1.286,0,0,1-.164.012,1.139,1.139,0,0,1-.806-.333l-12.669-12.615a1.132,1.132,0,0,1,.264-1.8l3.341-1.8-1.57-1.562-7.986-1.473a1.133,1.133,0,0,1-.6-1.917l10.562-10.518a1.144,1.144,0,0,1,.66-.323l10.955-1.407,7.59-7.558a31.191,31.191,0,0,1,25.817-8.839,1.135,1.135,0,0,1,.99.986,30.9,30.9,0,0,1-8.876,25.708l-7.59,7.558-1.413,10.91a1.128,1.128,0,0,1-.324.657L81,1253.567a1.148,1.148,0,0,1-1.143.281Zm.022-9,1.04,5.593,8.757-8.721.985-7.609ZM62.436,1233.9l10.51,10.466,1.4-2.583-9.32-9.283Zm22.137-26.227-20.627,20.541,14.71,14.648,20.627-20.542a28.864,28.864,0,0,0,6.755-10.627,13.6,13.6,0,0,1-10.792-10.748A29.007,29.007,0,0,0,84.573,1207.673ZM65.1,1217.234l-8.757,8.721,5.616,1.036,10.783-10.738Zm32.339-16.971a11.333,11.333,0,0,0,9.29,9.251,28.823,28.823,0,0,0,.882-10.129q-1.3-.119-2.611-.118A29.238,29.238,0,0,0,97.434,1200.263ZM61.411,1252.44h0Zm0,0v0Zm0,0v0Zm0,0v0Zm0-.012,0,.012Zm.49-1.1a1.131,1.131,0,0,1,0-1.6l4.4-4.383a1.141,1.141,0,0,1,1.611,0,1.13,1.13,0,0,1,0,1.6l-4.4,4.384a1.143,1.143,0,0,1-1.611,0Zm-11.6-.855a1.131,1.131,0,0,1,0-1.6l4.4-4.384a1.143,1.143,0,0,1,1.611,0,1.131,1.131,0,0,1,0,1.6l-4.4,4.384a1.143,1.143,0,0,1-1.611,0Zm6.611-6.888c.009.014.015.023,0,0s-.012-.018,0,0a1.14,1.14,0,1,1,1.226.474,1.115,1.115,0,0,1-.271.033A1.159,1.159,0,0,1,56.908,1243.579Zm2.554-2.238a1.131,1.131,0,0,1,0-1.6l.606-.6a1.143,1.143,0,0,1,1.611,0,1.131,1.131,0,0,1,0,1.6l-.607.6a1.142,1.142,0,0,1-1.61,0Zm24-17.913a6.868,6.868,0,0,1,0-9.73,6.937,6.937,0,0,1,9.77,0,6.894,6.894,0,0,1-9.77,9.73Zm1.61-8.126a4.6,4.6,0,0,0,0,6.522,4.652,4.652,0,0,0,6.55,0,4.622,4.622,0,0,0-6.55-6.522Z" transform="translate(-49.964 -1196.998)"/>
</svg>
