<svg xmlns="http://www.w3.org/2000/svg" width="46" height="58.998" viewBox="0 0 46 58.998">
  <path id="Forma_1" data-name="Forma 1" d="M67.823,2076a3.388,3.388,0,0,1-3.366-3.4l-3.611-36.809h-.117a3.755,3.755,0,0,1-3.73-3.769v-4.811a3.755,3.755,0,0,1,3.73-3.77h.515V2020.4a3.388,3.388,0,0,1,3.367-3.4l30.861,2.147h.005a3.368,3.368,0,0,1,3.276,3.4v.887h.516a3.756,3.756,0,0,1,3.73,3.77v4.81a3.754,3.754,0,0,1-3.73,3.77h-.06l-3.617,36.933a3.367,3.367,0,0,1-3.36,3.279Zm-2.018-15.248,1.115,11.559.016.163a1,1,0,0,0,.547.939.808.808,0,0,0,.338.073H92.231a.9.9,0,0,0,.88-.888l1.138-11.846-5.23-.972a11.744,11.744,0,0,1-17.96,0Zm6.754-3.1a9.279,9.279,0,0,0,14.964,0l.463-.621,6.53,1.216.965-9.872-7.5,1.353-.46-.616a9.279,9.279,0,0,0-14.964,0l-.46.616-7.521-1.352.967,9.873,6.552-1.215Zm-8.2-11.871,6.7,1.206a11.742,11.742,0,0,1,17.966,0l6.674-1.2,1.01-9.994H63.349Zm-4.871-18.573v4.811a1.251,1.251,0,0,0,1.243,1.256h38.54a1.251,1.251,0,0,0,1.243-1.256v-4.811a1.251,1.251,0,0,0-1.243-1.256H60.729A1.251,1.251,0,0,0,59.486,2027.207Zm4.244-6.8v3.035H96.268v-.887a.885.885,0,0,0-.88-.89l-30.862-2.147A.876.876,0,0,0,63.731,2020.4Zm9.431,33.04A6.862,6.862,0,1,1,80,2059.725,6.585,6.585,0,0,1,73.162,2053.442Zm2.486,0a4.4,4.4,0,1,0,4.351-3.77A4.1,4.1,0,0,0,75.648,2053.442Z" transform="translate(-57 -2017.001)"/>
</svg>
