<svg xmlns="http://www.w3.org/2000/svg" width="56" height="56.001" viewBox="0 0 56 56.001">
  <path id="Forma_1" data-name="Forma 1" d="M59,2276a7.008,7.008,0,0,1-7-7v-24.937a7.008,7.008,0,0,1,6.074-6.936v-.756a3.248,3.248,0,0,1,3.244-3.244h1.589a3.248,3.248,0,0,1,3.244,3.244v.692h1.294l.853-3.223a5.08,5.08,0,0,1,4.906-3.776H87.871a5.078,5.078,0,0,1,4.9,3.776l.853,3.223H101a7.008,7.008,0,0,1,7,7v11.866a1.093,1.093,0,1,1-2.187,0v-3.117H92.361a12.909,12.909,0,1,1-24.717,0H54.187V2269A4.818,4.818,0,0,0,59,2273.812h42a4.818,4.818,0,0,0,4.813-4.812v-3.5a1.093,1.093,0,1,1,2.187,0v3.5a7.008,7.008,0,0,1-7,7Zm17.1-30.676a1.093,1.093,0,0,1-.542,1.448,10.719,10.719,0,1,0,8.646-.1,1.094,1.094,0,1,1,.859-2.011,12.892,12.892,0,0,1,6.414,5.968h14.333v-6.563A4.818,4.818,0,0,0,101,2239.25H59a4.818,4.818,0,0,0-4.812,4.812v6.563H68.531a12.925,12.925,0,0,1,6.12-5.843,1.093,1.093,0,0,1,1.449.542ZM70.413,2234.4l-.706,2.663H91.366l-.7-2.663a2.889,2.889,0,0,0-2.791-2.148H73.2A2.889,2.889,0,0,0,70.413,2234.4Zm-10.151,1.97v.693h3.7v-.693a1.058,1.058,0,0,0-1.057-1.057H61.319A1.058,1.058,0,0,0,60.262,2236.37Zm11.425,20.162A8.322,8.322,0,0,1,80,2248.219a1.094,1.094,0,1,1,0,2.188,6.125,6.125,0,1,0,6.125,6.125,1.093,1.093,0,1,1,2.187,0,8.312,8.312,0,1,1-16.625,0Zm34.445,5.093a1.092,1.092,0,1,1,.773.321A1.1,1.1,0,0,1,106.132,2261.625Zm-29.851-5.093A3.719,3.719,0,1,1,80,2260.25,3.724,3.724,0,0,1,76.28,2256.531Zm2.188,0A1.531,1.531,0,1,0,80,2255,1.533,1.533,0,0,0,78.468,2256.531Zm-19.636-11.594a3.281,3.281,0,1,1,3.281,3.281A3.285,3.285,0,0,1,58.832,2244.938Zm2.187,0a1.094,1.094,0,1,0,1.094-1.094A1.094,1.094,0,0,0,61.019,2244.938Zm35.71,1.094a1.094,1.094,0,1,1,0-2.187h2.831a1.094,1.094,0,1,1,0,2.187Zm-17.5-.538a1.094,1.094,0,1,1,.774.32A1.105,1.105,0,0,1,79.226,2245.493Zm-7.538-17.132-2.147-2.147a1.094,1.094,0,0,1,1.547-1.546l2.147,2.146a1.094,1.094,0,0,1-1.547,1.547Zm15.089-.04a1.092,1.092,0,0,1,0-1.546l2.146-2.147a1.094,1.094,0,0,1,1.547,1.547l-2.146,2.146a1.094,1.094,0,0,1-1.547,0Zm-7.885-1.967v-5.262a1.094,1.094,0,0,1,2.188,0v5.262a1.094,1.094,0,1,1-2.188,0Z" transform="translate(-52 -2220)"/>
</svg>
