<svg xmlns="http://www.w3.org/2000/svg" width="59" height="59" viewBox="0 0 59 59">
  <path id="Forma_1" data-name="Forma 1" d="M101.131,1053.649,90,1042.521l0,0-4.252-4.252a22.841,22.841,0,0,1-12.7,3.825,23.047,23.047,0,1,1,23.047-23.046,22.842,22.842,0,0,1-3.826,12.7l15.382,15.381a4.609,4.609,0,1,1-6.519,6.518Zm-8.6-11.862,10.232,10.233a2.3,2.3,0,1,0,3.259-3.259l-10.232-10.232A30.263,30.263,0,0,1,92.529,1041.787Zm-4.9-4.9,3.27,3.27a28.066,28.066,0,0,0,3.258-3.259l-3.269-3.27A23.092,23.092,0,0,1,87.626,1036.884ZM52.3,1019.047A20.742,20.742,0,1,0,73.047,998.3,20.766,20.766,0,0,0,52.3,1019.047Zm2.3,0a18.437,18.437,0,1,1,18.437,18.437A18.458,18.458,0,0,1,54.609,1019.047Zm2.3,0a16.132,16.132,0,1,0,16.132-16.133A16.151,16.151,0,0,0,56.914,1019.047Zm27.656,0a1.15,1.15,0,1,1,1.149,1.15A1.15,1.15,0,0,1,84.57,1019.05Zm-.761-4.124a11.6,11.6,0,0,0-10.762-7.4,1.152,1.152,0,0,1,0-2.3,13.851,13.851,0,0,1,12.914,8.88,1.153,1.153,0,1,1-2.152.827Z" transform="translate(-50 -995.999)"/>
</svg>
